<?xml version="1.0" encoding="UTF-8" standalone="no"?>
<svg height="400" width="400" version="1.1" id="svg1046" sodipodi:docname="Broom_icon.svg" inkscape:version="1.1 (c68e22c387, 2021-05-23)" xmlns:inkscape="http://www.inkscape.org/namespaces/inkscape" xmlns:sodipodi="http://sodipodi.sourceforge.net/DTD/sodipodi-0.dtd" xmlns:xlink="http://www.w3.org/1999/xlink" xmlns="http://www.w3.org/2000/svg" xmlns:svg="http://www.w3.org/2000/svg">
  <sodipodi:namedview id="namedview1048" pagecolor="#505050" bordercolor="#eeeeee" borderopacity="1" inkscape:pageshadow="0" inkscape:pageopacity="0" inkscape:pagecheckerboard="0" showgrid="false" inkscape:zoom="1.2825" inkscape:cx="199.61014" inkscape:cy="200.38986" inkscape:window-width="1264" inkscape:window-height="728" inkscape:window-x="-7" inkscape:window-y="0" inkscape:window-maximized="0" inkscape:current-layer="svg1046"/>
  <defs id="defs1004">
    <linearGradient id="c">
      <stop stop-color="#fdde61" offset="0" id="stop937"/>
      <stop stop-color="#cc9021" offset="1" id="stop939"/>
    </linearGradient>
    <linearGradient id="d">
      <stop stop-color="#974f05" offset="0" id="stop942"/>
      <stop stop-color="#deb764" offset="1" id="stop944"/>
    </linearGradient>
    <linearGradient id="b">
      <stop stop-color="#fff" stop-opacity="0.6" offset="0" id="stop947"/>
      <stop stop-color="#fff" stop-opacity="0" offset="1" id="stop949"/>
    </linearGradient>
    <linearGradient id="a">
      <stop stop-color="#b77617" offset="0" id="stop952"/>
      <stop stop-color="#fff" stop-opacity=".4742" offset="1" id="stop954"/>
    </linearGradient>
    <linearGradient id="e">
      <stop stop-color="#96af96" offset="0" id="stop957"/>
      <stop stop-color="#96af96" stop-opacity="0" offset="1" id="stop959"/>
    </linearGradient>
    <linearGradient id="y" y2="255.8" xlink:href="#e" gradientUnits="userSpaceOnUse" x2="93.5" y1="223.8" x1="28.99"/>
    <linearGradient id="x" y2="314.3" xlink:href="#e" gradientUnits="userSpaceOnUse" x2="105.5" y1="270.3" x1="62.91" gradientTransform="matrix(1.506399,0,0,1.4011904,-14.130535,-139.81484)"/>
    <linearGradient id="w" y2="203.8" xlink:href="#a" gradientUnits="userSpaceOnUse" x2="148" y1="315.5" x1="130.2"/>
    <linearGradient id="v" y2="119.2" xlink:href="#a" gradientUnits="userSpaceOnUse" x2="236" y1="290" x1="159.2"/>
    <linearGradient id="u" y2="198.8" xlink:href="#a" gradientUnits="userSpaceOnUse" x2="209.5" y1="312.8" x1="194.6"/>
    <linearGradient id="t" y2="141.2" xlink:href="#a" gradientUnits="userSpaceOnUse" x2="261" y1="307.8" x1="233.9"/>
    <linearGradient id="s" y2="130" xlink:href="#a" gradientUnits="userSpaceOnUse" x2="299" y1="314.5" x1="280.2"/>
    <linearGradient id="r" y2="140.8" xlink:href="#a" gradientUnits="userSpaceOnUse" x2="318.5" y1="275.8" x1="297.9"/>
    <linearGradient id="q" y2="313.6" xlink:href="#b" gradientUnits="userSpaceOnUse" x2="313.5" y1="313.6" x1="130.7" gradientTransform="translate(22.5,-2.5)"/>
    <linearGradient id="p" y2="226.6" xlink:href="#b" gradientUnits="userSpaceOnUse" x2="196.1" y1="82.8" x1="311.7"/>
    <linearGradient id="o" y2="235.2" gradientUnits="userSpaceOnUse" x2="329.5" y1="150.7" x1="170.1">
      <stop stop-color="#e3140f" offset="0" id="stop972"/>
      <stop stop-color="#fee7e7" offset=".25" id="stop974"/>
      <stop stop-color="#e3140f" offset="1" id="stop976"/>
    </linearGradient>
    <linearGradient id="n" y2="86.18" xlink:href="#d" gradientUnits="userSpaceOnUse" x2="297.9" y1="377" x1="235.5"/>
    <linearGradient id="m" y2="81.46" xlink:href="#c" gradientUnits="userSpaceOnUse" x2="262.1" y1="370" x1="262.1"/>
    <radialGradient id="f" gradientUnits="userSpaceOnUse" cy="348" cx="220" gradientTransform="matrix(1 0 0 .2985 0 244.1)" r="268">
      <stop stop-color="#474747" offset="0" id="stop981"/>
      <stop stop-color="#595959" offset=".25" id="stop983"/>
      <stop stop-color="#a3a3a3" stop-opacity=".4980" offset=".7188" id="stop985"/>
      <stop stop-color="#fff" stop-opacity="0" offset="1" id="stop987"/>
    </radialGradient>
    <linearGradient id="l" y2="61.5" xlink:href="#d" gradientUnits="userSpaceOnUse" x2="324.5" y1="112.2" x1="324.5"/>
    <linearGradient id="k" y2="73.79" xlink:href="#c" gradientUnits="userSpaceOnUse" x2="294.7" y1="108.6" x1="335"/>
    <linearGradient id="j" y2="85.68" xlink:href="#b" gradientUnits="userSpaceOnUse" x2="319.1" y1="73.86" x1="292"/>
    <linearGradient id="i" y2="55.2" xlink:href="#b" gradientUnits="userSpaceOnUse" x2="336.5" y1="21.08" x1="363.2"/>
    <linearGradient id="h" y2="14.32" gradientUnits="userSpaceOnUse" x2="370.2" y1="84.82" x1="314">
      <stop stop-color="#4a3302" offset="0" id="stop994"/>
      <stop stop-color="#c99414" offset="1" id="stop996"/>
    </linearGradient>
    <linearGradient id="g" y2="53.66" gradientUnits="userSpaceOnUse" x2="331.3" y1="61.41" x1="340.6">
      <stop stop-color="#c5942f" offset="0" id="stop999"/>
      <stop stop-color="#80630e" offset="1" id="stop1001"/>
    </linearGradient>
  </defs>
  <path d="M 161.5,170.5 C 136.9,108.9 53.2,130.4 76.5,189.5 44.71,186.7 34.3,207 51,233.5 3.08,240.4 9.29,281 36.5,298.5 l 135,2.5" fill="url(#y)" id="path1008" style="fill:#bababa;fill-opacity:1"/>
  <path d="m 194.50572,172.66251 c -47.45157,-15.83345 -64.95592,18.49572 -64.77516,45.53869 -31.107134,-6.86583 -52.000887,13.45143 -53.477158,39.23333 -55.947657,-4.34369 -72.4577897,75.52416 0,77.06547 l 114.888978,1.57507" fill="url(#x)" id="path1010" style="fill:#d6d6d6;fill-opacity:1;stroke-width:1.45284" sodipodi:nodetypes="ccccc"/>
  <path d="m166.5 371.2s-63.5-10.6-63.5-75.1c0-66.6 93.8-179.1 134.5-203.1 27.1-15.99 47-16.5 76-11.5s39.5 26.5 39.5 43c0 32-37.5 98.7-37.5 129.5 0 57 71 50.5 71 50.5-4 16.5-20.4 22.3-39 24 5.8 5.4 12.5 11 27.5 19-42.1 3.8-44.3-2.9-58-6.5 4.9 7.7 10.6 16.7 18.5 25-22.1 1-41.4-6.6-59.5-17.5 1.3 9.3 1.4 18.7 6.5 28-28-5.3-53.2-15.1-74.5-31 .9 7.9 1.9 15.9 8 29-16.7-4.1-34.3-13-55-37-1.8 8.5 2.1 21.3 5.5 33.7z" fill="url(#n)" id="path1012" style="fill:#ffcc33;fill-opacity:1"/>
  <path d="m148 222c-25.3 43-26.6 71.8-16 93.5-6.1-39.1 5.3-66.1 16-93.5z" fill="url(#w)" id="path1016" style="fill:#ac6600;fill-opacity:1"/>
  <path d="m230 150.5c-36 42.8-82.8 82.7-68 139.5-3.6-48.4 29.8-95.4 68-139.5z" fill="url(#v)" id="path1018" style="fill:#ac6600;fill-opacity:1"/>
  <path d="m212.5 207c-19.7 34.8-30.3 70.7-15.5 109.5-5.3-39.5 2.2-75.3 15.5-109.5z" fill="url(#u)" id="path1020" style="fill:#b77617;fill-opacity:1"/>
  <path d="m261 160c-24.9 48.6-46.5 96.9-23 141.5-11.4-47.2 2.7-94.3 23-141.5z" fill="url(#t)" id="path1022" style="fill:#b77617;fill-opacity:1"/>
  <path d="m304 135.5c-24.1 53.2-50.3 105.8-18.5 179-17.4-65.2-6.7-117.8 18.5-179z" fill="url(#s)" id="path1024" style="fill:#b77617;fill-opacity:1"/>
  <path d="m322.5 147c-26.2 55.3-27.5 92-22 123.5 1.1-41.2 10.4-82.3 22-123.5z" fill="url(#r)" id="path1026" style="fill:#b77617;fill-opacity:1"/>
  <path stroke-linejoin="round" d="m191.4 135l-27.6 33.2c6.8 33.7 55.6 63.6 161.6 42.8l11.7-30.8c-100.5 14.4-136.4-6-145.7-45.2z" stroke="#991d03" stroke-width="2.5" fill="url(#o)" id="path1030" style="stroke:#dd3333;stroke-opacity:1;fill:#e3140f;fill-opacity:1"/>
  <path d="m294.5 104.4c47.7 25.3 70.6-18.08 35.4-35.68-47.6-23.72-70.7 17.02-35.4 35.68z" fill="url(#l)" id="path1034" style="fill:#ac6600;fill-opacity:1"/>
  <path d="m350 12.5h39l-64 74.5c-14.5 2.64-19.5-3-19.5-13l44.5-61.5z" fill="url(#h)" id="path1040" style="fill:#814f08;fill-opacity:1"/>
</svg>